PathFileType	4	(X/Y/Z)	/Users/itak/Documents/Research/Walk-IL/dataset/trc/00483_00167.trc
DataRate	CameraRate	NumFrames	NumMarkers	Units	OrigDataRate	OrigDataStartFrame	OrigNumFrames
100.000000	100.000000	4	53	mm	100.000000	299	599
Frame#	Time	RPSI			LPSI			L3			STRN			T10			C7			CLAV			RBAK			LBAK			LSHO			LUPA			LAEL			LAOL			LWTS			LWPS			LFRA			LIFD			LHPS			LHTS			RSHO			RUPA			RAEL			RAOL			RWTS			RWPS			RFRA			RIFD			RHTS			RHPS			RBHD			LFHD			RFHD			LBHD			LHIP			RHIP			RASI			LASI			LKNE			LTHI			LANK			LTIP			LTOE			LMT1			LMT5			LHEE			RKNE			RTHI			RANK			RTIP			RTOE			RMT1			RMT5			RHEE			
		X1	Y1	Z1	X2	Y2	Z2	X3	Y3	Z3	X4	Y4	Z4	X5	Y5	Z5	X6	Y6	Z6	X7	Y7	Z7	X8	Y8	Z8	X9	Y9	Z9	X10	Y10	Z10	X11	Y11	Z11	X12	Y12	Z12	X13	Y13	Z13	X14	Y14	Z14	X15	Y15	Z15	X16	Y16	Z16	X17	Y17	Z17	X18	Y18	Z18	X19	Y19	Z19	X20	Y20	Z20	X21	Y21	Z21	X22	Y22	Z22	X23	Y23	Z23	X24	Y24	Z24	X25	Y25	Z25	X26	Y26	Z26	X27	Y27	Z27	X28	Y28	Z28	X29	Y29	Z29	X30	Y30	Z30	X31	Y31	Z31	X32	Y32	Z32	X33	Y33	Z33	X34	Y34	Z34	X35	Y35	Z35	X36	Y36	Z36	X37	Y37	Z37	X38	Y38	Z38	X39	Y39	Z39	X40	Y40	Z40	X41	Y41	Z41	X42	Y42	Z42	X43	Y43	Z43	X44	Y44	Z44	X45	Y45	Z45	X46	Y46	Z46	X47	Y47	Z47	X48	Y48	Z48	X49	Y49	Z49	X50	Y50	Z50	X51	Y51	Z51	X52	Y52	Z52	X53	Y53	Z53	

300	2.99	282.1060180664062	975.2673950195312	-142.8707122802734	151.9458465576172	943.1724243164062	-196.7584228515625	228.5508117675781	1061.545532226562	-194.8753509521484	269.1733703613281	1226.703247070312	-493.5303649902344	208.4620513916016	1183.5693359375	-199.6543273925781	212.3964080810547	1441.528198242188	-297.7724914550781	242.6490631103516	1341.1064453125	-472.4090270996094	302.2560119628906	1340.7607421875	-208.4609069824219	113.1110916137695	1384.998657226562	-279.8755187988281	51.80091094970703	1393.1064453125	-396.7396850585938	-34.30429840087891	1263.15478515625	-392.3923034667969	-17.32167625427246	1040.063354492188	-400.1951293945312	21.21969985961914	1037.854614257812	-304.1516418457031	126.6639785766602	898.8768920898438	-486.8807678222656	78.68780517578125	851.2012939453125	-456.63818359375	17.98146057128906	962.1233520507812	-431.866455078125	190.0205535888672	756.0592651367188	-518.9356689453125	114.4187393188477	785.430908203125	-474.3670349121094	157.5072784423828	823.980224609375	-515.8687744140625	384.0091857910156	1425.643310546875	-333.1800231933594	460.6377258300781	1378.809814453125	-293.5118103027344	543.0179443359375	1096.821166992188	-252.0883331298828	497.7113037109375	1075.31591796875	-206.1371612548828	515.3944702148438	910.4246826171875	-383.971435546875	563.6980590820312	882.708251953125	-315.2480773925781	555.1337280273438	1038.763916015625	-259.9963989257812	528.0298461914062	759.5598754882812	-417.6849060058594	530.6917724609375	820.2586669921875	-417.2620239257812	565.2647094726562	801.412841796875	-349.3748779296875	283.36181640625	1650.164794921875	-424.1705627441406	101.6026153564453	1612.067138671875	-514.731201171875	224.4355926513672	1639.326293945312	-548.2266235351562	119.5954437255859	1620.14404296875	-362.2356567382812	129.5228729248047	816.2985229492188	-369.597900390625	475.7336730957031	904.4346923828125	-185.9919128417969	447.8390808105469	923.9345703125	-308.8936462402344	228.6358947753906	873.3834838867188	-417.3455810546875	321.3504638671875	435.2944641113281	-422.91162109375	254.1488647460938	575.0469360351562	-436.7839660644531	313.2515258789062	38.68299865722656	-290.754638671875	330.9368591308594	280.1842041015625	-401.0601501464844	545.908203125	36.97544479370117	-377.7514038085938	494.8106384277344	53.66801452636719	-315.1823425292969	423.9329833984375	40.16303634643555	-402.3826293945312	321.1933288574219	57.30419158935547	-215.0660552978516	607.0322265625	544.8431396484375	-187.1834259033203	544.3204956054688	787.6494750976562	-214.2996826171875	598.2911987304688	300.3587036132812	190.1531982421875	626.5712280273438	445.9119262695312	-82.17951965332031	559.855712890625	117.6415176391602	78.64271545410156	526.1651000976562	182.9774017333984	88.20412445068359	619.609375	178.5424194335938	137.7027740478516	549.5036010742188	358.0552368164062	212.6789398193359	
301	3	296.8691101074219	978.9197387695312	-144.6597290039062	163.6048278808594	946.8771362304688	-190.3779602050781	239.992919921875	1064.885864257812	-194.4078521728516	265.6561279296875	1227.591430664062	-495.8998413085938	219.4291687011719	1186.578369140625	-199.0216522216797	219.2131958007812	1443.779052734375	-298.7232360839844	241.1446990966797	1342.370361328125	-474.3028259277344	312.8606872558594	1343.042358398438	-213.4247436523438	120.5016632080078	1387.737915039062	-276.3558349609375	54.15317153930664	1395.888427734375	-390.5868530273438	-31.85427856445312	1266.059692382812	-383.0010375976562	-14.68945598602295	1042.714111328125	-391.6461181640625	27.05751800537109	1040.736938476562	-297.0838623046875	125.959846496582	900.95947265625	-482.8419494628906	79.32298278808594	853.4834594726562	-450.4362487792969	19.43045616149902	964.6549072265625	-424.2624206542969	187.2114105224609	757.4222412109375	-516.1829223632812	113.8989791870117	787.5690307617188	-468.8779602050781	155.3070831298828	825.4937744140625	-512.356689453125	388.9438171386719	1427.014526367188	-342.2093811035156	467.2906799316406	1380.504272460938	-305.9287719726562	552.323974609375	1099.777221679688	-264.7843933105469	508.919677734375	1078.710693359375	-216.9408569335938	522.4822998046875	910.168212890625	-391.06298828125	573.6688842773438	884.6016845703125	-323.8822021484375	564.9126586914062	1041.71337890625	-271.8168640136719	535.9566040039062	759.3501586914062	-422.9288330078125	538.0831298828125	820.0928955078125	-423.5887451171875	575.2152709960938	802.6983642578125	-356.6971740722656	285.3193359375	1651.89794921875	-427.4868774414062	100.2087631225586	1614.31591796875	-511.2167663574219	221.8548583984375	1641.152099609375	-549.2525634765625	123.8163681030273	1622.402099609375	-359.5352783203125	130.3138885498047	818.1939086914062	-359.7986450195312	487.3751525878906	906.6329956054688	-198.6400451660156	451.9276123046875	925.2666015625	-319.9759521484375	226.509521484375	874.3618774414062	-414.6819152832031	316.9435729980469	435.5399780273438	-419.533203125	249.7279052734375	575.51708984375	-431.1952209472656	317.0363464355469	39.31027221679688	-285.5304260253906	327.6277160644531	280.5107421875	-397.2568359375	545.2265625	37.40134811401367	-382.9387817382812	497.1710205078125	54.43328857421875	-318.0487365722656	423.1589965820312	40.22443771362305	-402.2071533203125	328.4952392578125	58.77665710449219	-210.5365905761719	615.0076904296875	545.5654296875	-203.6996459960938	553.0437622070312	788.5980834960938	-229.9420928955078	630.2418823242188	305.2220764160156	176.2640991210938	640.9437866210938	447.7016296386719	-98.99679565429688	582.3477172851562	121.8655624389648	69.19357299804688	550.0050048828125	187.5979766845703	80.73659515380859	646.5782470703125	182.7000427246094	123.6345748901367	583.6648559570312	363.6175231933594	201.5353851318359	
302	3.01	311.5509643554688	982.5430297851562	-146.9769592285156	175.6546936035156	950.6752319335938	-184.2455749511719	251.3911437988281	1068.258544921875	-194.2154693603516	262.099609375	1228.411254882812	-497.7604064941406	230.3858642578125	1189.610595703125	-198.7394104003906	225.9924011230469	1446.049194335938	-299.7662353515625	239.6566925048828	1343.580444335938	-475.8816223144531	323.2064819335938	1345.302490234375	-218.6279296875	128.026611328125	1390.537719726562	-273.0163879394531	56.85900497436523	1398.6767578125	-384.4674377441406	-29.01041984558105	1269.05419921875	-373.6799011230469	-11.9832878112793	1045.454711914062	-383.1575622558594	32.8514518737793	1043.670532226562	-290.1086730957031	125.1912994384766	902.9852905273438	-478.5672302246094	79.79120635986328	855.7579956054688	-444.1883850097656	20.84245872497559	967.2340698242188	-416.5846252441406	184.1010284423828	758.5550537109375	-512.9466552734375	113.1362838745117	789.6346435546875	-463.1590576171875	153.0218200683594	826.8848266601562	-508.4845275878906	393.4665222167969	1428.401123046875	-351.1637573242188	473.3768615722656	1382.234985351562	-318.3324890136719	561.2445068359375	1102.813232421875	-277.7231140136719	519.8447875976562	1082.231811523438	-228.0279693603516	529.3429565429688	909.7431640625	-397.94580078125	583.598876953125	886.6409301757812	-332.541259765625	574.36962890625	1044.774291992188	-283.8876953125	543.8550415039062	759.00146484375	-427.6303100585938	545.351806640625	819.7605590820312	-429.5398864746094	585.1738891601562	804.0760498046875	-363.8075866699219	287.19140625	1653.6171875	-430.6440734863281	99.02353668212891	1616.566162109375	-507.4515075683594	219.2912292480469	1643.011108398438	-549.9716186523438	128.2078857421875	1624.585815429688	-356.8213195800781	131.465576171875	820.1773071289062	-349.3661804199219	498.1959533691406	908.60498046875	-211.7393188476562	455.35302734375	926.4041137695312	-331.0672302246094	224.2895202636719	875.3074951171875	-411.4189453125	312.323974609375	435.73388671875	-415.3017578125	245.0813598632812	575.9364624023438	-424.6565856933594	321.7830200195312	39.98876953125	-279.6827697753906	324.3450012207031	280.8627014160156	-392.592529296875	543.927001953125	38.01528549194336	-388.8922729492188	499.7002868652344	55.30800247192383	-321.4987487792969	422.2047119140625	40.27492523193359	-401.7781982421875	337.19775390625	60.40410232543945	-205.6962585449219	621.8464965820312	546.0280151367188	-220.2584075927734	560.7116088867188	789.2794189453125	-245.7983856201172	660.326904296875	310.2218322753906	161.0817260742188	653.8820190429688	449.2849731445312	-116.0903701782227	603.7058715820312	126.2182998657227	58.98118209838867	572.686279296875	192.3200378417969	72.35471343994141	671.9320678710938	187.0239868164062	108.6567230224609	616.0291748046875	369.2973327636719	188.8106994628906	
303	3.02	326.04833984375	986.099365234375	-149.8670349121094	188.0297698974609	954.512939453125	-178.4445648193359	262.7121276855469	1071.6298828125	-194.3246917724609	258.5799865722656	1229.167846679688	-499.1369934082031	241.2951354980469	1192.629272460938	-198.835205078125	232.7507781982422	1448.31298828125	-300.8985595703125	238.2205200195312	1344.728271484375	-477.1472778320312	333.288818359375	1347.513305664062	-224.0566864013672	135.6833038330078	1393.3779296875	-269.8631896972656	59.92001342773438	1401.447387695312	-378.3997802734375	-25.79006004333496	1272.112915039062	-364.4397277832031	-9.21586799621582	1048.262451171875	-374.7206115722656	38.56800079345703	1046.617797851562	-283.1927185058594	124.3623504638672	904.9653930664062	-474.0621948242188	80.08407592773438	858.0220947265625	-437.9098815917969	22.22126579284668	969.843505859375	-408.8335571289062	180.7891387939453	759.523193359375	-509.2685852050781	112.1647109985352	791.645263671875	-457.2357788085938	150.705322265625	828.215087890625	-504.3023071289062	397.6106872558594	1429.786010742188	-360.0148315429688	478.9132385253906	1383.976806640625	-330.6799926757812	569.7386474609375	1105.880249023438	-290.830078125	530.4256591796875	1085.838745117188	-239.3438110351562	536.0573120117188	909.2315063476562	-404.6808471679688	593.403076171875	888.8052368164062	-341.1945495605469	583.4492797851562	1047.902954101562	-296.1438598632812	551.8053588867188	758.5427856445312	-431.8245544433594	552.5726318359375	819.2861328125	-435.126953125	595.0977172851562	805.5621948242188	-370.6930236816406	289.0053100585938	1655.3056640625	-433.6719360351562	98.06430816650391	1618.793334960938	-503.4393920898438	216.7665710449219	1644.880737304688	-550.4157104492188	132.7927703857422	1626.677490234375	-354.09912109375	133.0681762695312	822.2183837890625	-338.3863830566406	508.1055603027344	910.3562622070312	-225.2294464111328	458.0591430664062	927.3250122070312	-342.0849609375	222.0401916503906	876.2085571289062	-407.5813903808594	307.6448974609375	435.861328125	-410.1301574707031	240.3677825927734	576.294921875	-417.1164855957031	327.6846923828125	40.71774673461914	-273.2572631835938	321.3079223632812	281.2423400878906	-387.0170288085938	541.8616943359375	38.86344528198242	-395.5544738769531	502.3428649902344	56.28482055664062	-325.5752258300781	421.049560546875	40.28975677490234	-401.0216674804688	347.471435546875	62.18799591064453	-200.6826477050781	627.5762329101562	546.260986328125	-236.7536468505859	567.2711791992188	789.7293090820312	-261.7715759277344	688.4461669921875	315.2373352050781	144.7705688476562	665.4083251953125	450.6507263183594	-133.3399353027344	624.072265625	130.5914306640625	48.02387237548828	594.2736206054688	197.0048828125	63.04258728027344	695.7278442382812	191.4349060058594	92.86344146728516	646.4249267578125	374.9389038085938	174.6728210449219	
